{"title":"Kontoret.S01E02.SWEDISH.1080i.HDTV.DD5.1.H264-PandaPuh","uid":7045284,"size":2188808236,"categoryP":"video","categoryS":"hd___tv_shows","magnet":"?xt=urn:btih:41c71e804d936a8bb8f67a61766c48363b845f1d&amp;dn=Kontoret.S01E02.SWEDISH.1080i.HDTV.DD5.1.H264-PandaPuh&amp;tr=udp%3A%2F%2Ftracker.openbittorrent.com%3A80&amp;tr=udp%3A%2F%2Fopen.demonii.com%3A1337&amp;tr=udp%3A%2F%2Ftracker.coppersurfer.tk%3A6969&amp;tr=udp%3A%2F%2Fexodus.desync.com%3A6969","seeders":1,"leechers":0,"uploader":null,"files":1,"time":1329724303,"description":"Format                         : MPEG-TS\nFile size                      : 2.04 GiB\nDuration                       : 22mn 16s\nOverall bit rate               : 13.1 Mbps\n\nVideo\nID                             : 1047 (0x417)\nMenu ID                        : 1 (0x1)\nFormat                         : AVC\nFormat/Info                    : Advanced Video Codec\nFormat profile                 : &lt;a class=&quot;__cf_email__&quot; href=&quot;/cdn-cgi/l/email-protection&quot; data-cfemail=&quot;6d25040a052d2159435d&quot;&gt;[email&amp;#160;protected]&lt;/a&gt;&lt;script cf-hash='f9e31' type=&quot;text/javascript&quot;&gt;\n/* &lt;![CDATA[ */!function(){try{var t=&quot;currentScript&quot;in document?document.currentScript:function(){for(var t=document.getElementsByTagName(&quot;script&quot;),e=t.length;e--;)if(t[e].getAttribute(&quot;cf-hash&quot;))return t[e]}();if(t&amp;&amp;t.previousSibling){var e,r,n,i,c=t.previousSibling,a=c.getAttribute(&quot;data-cfemail&quot;);if(a){for(e=&quot;&quot;,r=parseInt(a.substr(0,2),16),n=2;a.length-n;n+=2)i=parseInt(a.substr(n,2),16)^r,e+=String.fromCharCode(i);e=document.createTextNode(e),c.parentNode.replaceChild(e,c)}}}catch(u){}}();/* ]]&gt; */&lt;/script&gt;\nFormat settings, CABAC         : Yes\nFormat settings, ReFrames      : 4 frames\nCodec ID                       : 27\nDuration                       : 22mn 16s\nBit rate                       : 11.9 Mbps\nWidth                          : 1 920 pixels\nHeight                         : 1 080 pixels\nDisplay aspect ratio           : 16:9\nFrame rate                     : 25.000 fps\nColor space                    : YUV\nChroma subsampling             : 4:2:0\nBit depth                      : 8 bits\nScan type                      : Interlaced\nScan order                     : Top Field First\nBits/(Pixel*Frame)             : 0.229\nStream size                    : 1.85 GiB (91%)\nColor primaries                : BT.709-5, BT.1361, IEC 61966-2-4, SMPTE RP177\nTransfer characteristics       : BT.709-5, BT.1361\nMatrix coefficients            : BT.709-5, BT.1361, IEC 61966-2-4 709, SMPTE RP177\n\nAudio\nID                             : 3047 (0xBE7)\nMenu ID                        : 1 (0x1)\nFormat                         : AC-3\nFormat/Info                    : Audio Coding 3\nMode extension                 : CM (complete main)\nCodec ID                       : 6\nDuration                       : 22mn 16s\nBit rate mode                  : Constant\nBit rate                       : 576 Kbps\nChannel(s)                     : 6 channels\nChannel positions              : Front: L C R, Side: L R, LFE\nSampling rate                  : 48.0 KHz\nBit depth                      : 16 bits\nCompression mode               : Lossy\nStream size                    : 91.7 MiB (4%)\nLanguage                       : Swedish\n\n","torrent":{"xt":"urn:btih:41c71e804d936a8bb8f67a61766c48363b845f1d","amp;dn":"Kontoret.S01E02.SWEDISH.1080i.HDTV.DD5.1.H264-PandaPuh","amp;tr":["udp%3A%2F%2Ftracker.openbittorrent.com%3A80","udp%3A%2F%2Fopen.demonii.com%3A1337","udp%3A%2F%2Ftracker.coppersurfer.tk%3A6969","udp%3A%2F%2Fexodus.desync.com%3A6969"],"infoHash":"41c71e804d936a8bb8f67a61766c48363b845f1d","infoHashBuffer":{"type":"Buffer","data":[65,199,30,128,77,147,106,139,184,246,122,97,118,108,72,54,59,132,95,29]},"announce":[],"urlList":[]}}